<?xml version="1.0" encoding="UTF-8" standalone="no"?>
<!DOCTYPE svg PUBLIC "-//W3C//DTD SVG 1.1//EN" "http://www.w3.org/Graphics/SVG/1.1/DTD/svg11.dtd">
<svg width="100%" height="100%" viewBox="0 0 500 500" version="1.1" xmlns="http://www.w3.org/2000/svg" xmlns:xlink="http://www.w3.org/1999/xlink" xml:space="preserve" xmlns:serif="http://www.serif.com/" style="fill-rule:evenodd;clip-rule:evenodd;stroke-linejoin:round;stroke-miterlimit:2;">
    <g transform="matrix(1,0,0,1,-879.751,-1280.14)">
        <g id="Logo--React" transform="matrix(0.965195,0,0,0.881895,-2175.34,1803.97)">
            <rect x="3165.26" y="-593.982" width="518.03" height="566.961" style="fill:none;"/>
            <clipPath id="_clip1">
                <rect x="3165.26" y="-593.982" width="518.03" height="566.961"/>
            </clipPath>
            <g clip-path="url(#_clip1)">
                <g id="GRP-Logo" transform="matrix(0.740741,0,0,0.740741,887.774,-80.5076)">
                    <g id="Dot" transform="matrix(25.9015,0,0,28.348,3004.67,-764.061)">
                        <path d="M16.3,18.5C17.7,18.5 18.8,17.4 18.8,16C18.8,14.6 17.7,13.5 16.3,13.5C14.9,13.5 13.8,14.6 13.8,16C13.8,17.4 14.9,18.5 16.3,18.5Z" style="fill:rgb(164,153,42);fill-rule:nonzero;"/>
                    </g>
                    <g id="Reactor" transform="matrix(25.9015,0,0,28.348,3004.67,-764.061)">
                        <path d="M29.7,16C29.7,14.1 27.5,12.5 24,11.5C24.9,8 24.6,5.3 23,4.3C22.6,4.1 22.2,4 21.7,4C20.2,4 18.2,5.1 16.2,7C14.2,5.1 12.3,4 10.7,4C10.2,4 9.8,4.1 9.4,4.3C7.9,5.3 7.6,8 8.4,11.5C5,12.5 2.7,14.2 2.7,16C2.7,17.9 4.9,19.5 8.4,20.5C7.6,24 7.9,26.8 9.5,27.7C9.9,27.9 10.3,28 10.8,28C12.3,28 14.3,26.9 16.3,25C18.3,26.9 20.2,28 21.8,28C22.3,28 22.7,27.9 23.1,27.7C24.7,26.8 25,24 24.2,20.5C27.5,19.5 29.7,17.8 29.7,16ZM21.7,5.3C22,5.3 22.2,5.3 22.3,5.5C23.1,5.9 23.4,7.5 23.1,9.6C23,10.1 22.9,10.7 22.8,11.2C21.7,10.9 20.6,10.8 19.3,10.6C18.6,9.6 17.9,8.7 17.1,7.9C18.9,6.2 20.6,5.3 21.7,5.3ZM19.9,18.1C19.5,18.8 19.1,19.5 18.6,20.1C17.8,20.2 17,20.2 16.2,20.2C15.4,20.2 14.6,20.2 13.8,20.1C13.4,19.5 13,18.8 12.5,18.1C12.1,17.4 11.7,16.7 11.4,16C11.7,15.3 12.1,14.6 12.5,13.9C12.9,13.2 13.4,12.5 13.8,11.8C14.6,11.7 15.4,11.7 16.2,11.7C17,11.7 17.8,11.7 18.6,11.8C19,12.4 19.5,13.1 19.9,13.9C20.3,14.6 20.7,15.3 21,16C20.7,16.7 20.3,17.4 19.9,18.1ZM21.7,17.5C22,18.2 22.2,18.9 22.4,19.5C21.7,19.7 21,19.8 20.3,19.9C20.5,19.5 20.8,19.1 21,18.7C21.3,18.4 21.5,17.9 21.7,17.5ZM16.2,23.2C15.7,22.7 15.2,22.1 14.8,21.5L17.6,21.5C17.2,22.1 16.7,22.7 16.2,23.2ZM12.1,20C11.4,19.9 10.7,19.8 10,19.6C10.2,18.9 10.5,18.2 10.7,17.6C10.9,18 11.1,18.4 11.4,18.8C11.7,19.2 11.9,19.6 12.1,20ZM10.7,14.5C10.4,13.8 10.2,13.1 9.9,12.4C10.6,12.2 11.3,12.1 12.1,12C11.8,12.4 11.6,12.8 11.3,13.2C11.2,13.7 11,14.1 10.7,14.5ZM16.2,8.8C16.7,9.3 17.1,9.9 17.6,10.4L14.8,10.4C15.3,9.9 15.8,9.3 16.2,8.8ZM21,13.2C20.7,12.8 20.5,12.4 20.2,12C21,12.1 21.7,12.2 22.4,12.4C22.2,13.1 21.9,13.8 21.6,14.5C21.5,14.1 21.3,13.7 21,13.2ZM9.4,9.5C9.1,7.4 9.4,5.9 10.2,5.4C10.4,5.3 10.6,5.2 10.8,5.2C11.9,5.2 13.5,6.1 15.3,7.8C14.6,8.6 13.8,9.5 13.1,10.5C11.9,10.6 10.7,10.8 9.6,11.1C9.5,10.6 9.4,10 9.4,9.5ZM7.2,18.7C5.3,17.9 4,16.8 4,16C4,15.1 5.2,14.1 7.1,13.3C7.6,13.1 8.1,12.9 8.7,12.8C9,13.9 9.4,15 10,16.1C9.5,17.2 9.1,18.3 8.8,19.3C8.2,19.1 7.7,18.9 7.2,18.7ZM10.1,26.6C9.3,26.2 9,24.6 9.3,22.5C9.4,22 9.5,21.4 9.6,20.8C10.7,21 11.8,21.2 13,21.3C13.7,22.3 14.5,23.2 15.2,24C13.4,25.7 11.8,26.6 10.7,26.6C10.5,26.7 10.3,26.6 10.1,26.6ZM23.1,22.5C23.4,24.6 23.1,26.1 22.3,26.6C22.1,26.7 21.9,26.8 21.7,26.8C20.6,26.8 19,25.9 17.2,24.2C18,23.4 18.7,22.5 19.4,21.5C20.6,21.4 21.8,21.2 22.8,21C22.9,21.4 23,21.9 23.1,22.5ZM25.3,18.7C24.8,18.9 24.3,19.1 23.7,19.2C23.4,18.2 23,17.1 22.5,16C23,14.9 23.4,13.8 23.8,12.7C24.3,12.9 24.9,13 25.4,13.2C27.3,14 28.5,15 28.5,15.9C28.4,16.8 27.2,17.9 25.3,18.7Z" style="fill:rgb(164,153,42);fill-rule:nonzero;"/>
                    </g>
                </g>
            </g>
        </g>
    </g>
</svg>
