<?xml version="1.0" encoding="UTF-8" standalone="no"?>
<!DOCTYPE svg PUBLIC "-//W3C//DTD SVG 1.1//EN" "http://www.w3.org/Graphics/SVG/1.1/DTD/svg11.dtd">
<svg width="100%" height="100%" viewBox="0 0 500 500" version="1.1" xmlns="http://www.w3.org/2000/svg" xmlns:xlink="http://www.w3.org/1999/xlink" xml:space="preserve" xmlns:serif="http://www.serif.com/" style="fill-rule:evenodd;clip-rule:evenodd;stroke-linejoin:round;stroke-miterlimit:2;">
    <g transform="matrix(1,0,0,1,0,-1280.14)">
        <g id="Logo--Kafka" transform="matrix(0.965195,0,0,0.881895,-3055.09,1803.97)">
            <rect x="3165.26" y="-593.982" width="518.03" height="566.961" style="fill:none;"/>
            <g id="GRP-Logo" transform="matrix(1,0,0,1,-0.00405902,-92.4949)">
                <g id="Icon" transform="matrix(1.01229,0,0,1.1079,3165.26,-347.573)">
                    <path d="M49.763,20.98C47.181,18.387 43.598,16.79 39.604,16.79C35.619,16.79 32.064,18.387 29.514,20.98L29.449,20.98C26.874,23.555 25.277,27.148 25.277,31.117C25.277,35.109 26.874,38.679 29.449,41.229L29.514,41.299C32.064,43.869 35.619,45.444 39.604,45.444C43.598,45.444 47.181,43.869 49.763,41.299L49.794,41.229C52.379,38.679 53.956,35.109 53.956,31.117C53.956,27.148 52.379,23.555 49.794,20.98L49.763,20.98ZM39.604,217.105C43.598,217.105 47.181,215.478 49.763,212.933L49.794,212.857C52.379,210.318 53.956,206.724 53.956,202.775C53.956,198.784 52.379,195.208 49.794,192.621L49.763,192.621C47.181,190.003 43.598,188.421 39.604,188.421C35.619,188.421 32.064,190.003 29.514,192.621L29.449,192.621C26.874,195.208 25.277,198.784 25.277,202.775C25.277,206.724 26.874,210.318 29.449,212.857L29.514,212.933C32.064,215.478 35.619,217.105 39.604,217.105ZM117.665,173.695C121.213,172.762 124.425,170.486 126.388,167.041L126.652,166.537C128.397,163.275 128.715,159.503 127.782,156.156C126.842,152.583 124.54,149.414 121.103,147.441L120.9,147.305C117.55,145.465 113.739,145.064 110.233,146.019C106.67,146.909 103.469,149.281 101.518,152.696C99.542,156.091 99.131,159.992 100.076,163.583C101.051,167.116 103.336,170.308 106.753,172.304L106.773,172.304C110.198,174.272 114.07,174.625 117.665,173.695ZM54.299,102.266C50.538,98.515 45.348,96.163 39.604,96.163C33.867,96.163 28.692,98.515 24.938,102.266C21.197,106.012 18.89,111.179 18.89,116.924C18.89,122.668 21.197,127.858 24.938,131.647C28.692,135.375 33.867,137.705 39.604,137.705C45.348,137.705 50.538,135.375 54.299,131.647C58.05,127.858 60.357,122.668 60.357,116.924C60.357,111.179 58.05,106.012 54.299,102.266ZM46.035,77.846C54.375,79.22 61.861,83.215 67.586,88.979L67.628,88.979C68.539,89.887 69.424,90.887 70.249,91.885L84.553,83.611C82.63,77.799 82.54,71.723 84.087,66.024C86.125,58.394 91.072,51.564 98.489,47.284L98.73,47.131C106.066,42.982 114.403,42.117 121.928,44.155C129.55,46.199 136.425,51.168 140.705,58.572L140.705,58.595C144.965,65.959 145.828,74.409 143.797,82.016C141.768,89.644 136.804,96.521 129.395,100.776L127.441,101.93L127.243,101.93C120.391,105.192 112.856,105.703 105.936,103.88C100.254,102.376 95.044,99.202 90.962,94.701L76.677,102.953C78.32,107.295 79.227,111.977 79.227,116.924C79.227,121.845 78.32,126.594 76.677,130.96L90.962,139.189C95.044,134.618 100.254,131.516 105.936,130.007C113.561,127.923 122.01,128.808 129.395,133.114L129.868,133.334L129.868,133.357C137.002,137.682 141.791,144.357 143.797,151.896C145.828,159.458 144.965,167.913 140.705,175.292L140.447,175.806L140.417,175.764C136.139,182.877 129.395,187.696 121.95,189.735C114.315,191.748 105.863,190.888 98.489,186.646L98.489,186.588C91.072,182.3 86.125,175.455 84.087,167.84C82.54,162.166 82.63,156.091 84.553,150.281L70.249,142.027C69.424,143.025 68.539,143.98 67.628,144.888L67.586,144.933C61.861,150.678 54.375,154.669 46.035,155.998L46.035,172.527C51.977,173.768 57.298,176.739 61.465,180.909L61.488,180.951C67.074,186.513 70.534,194.26 70.534,202.775C70.534,211.265 67.074,218.968 61.488,224.557L61.465,224.645C55.839,230.231 48.121,233.691 39.604,233.691C31.131,233.691 23.394,230.231 17.78,224.645L17.757,224.645L17.757,224.557C12.166,218.968 8.698,211.265 8.698,202.775C8.698,194.26 12.166,186.513 17.757,180.951L17.757,180.909L17.78,180.909C21.944,176.739 27.275,173.768 33.195,172.527L33.195,155.998C24.858,154.669 17.383,150.678 11.669,144.933L11.609,144.888C4.473,137.727 0.005,127.858 0.005,116.924C0.005,106.012 4.473,96.143 11.609,88.979L11.669,88.979C17.383,83.215 24.858,79.22 33.195,77.846L33.195,61.388C27.275,60.104 21.944,57.133 17.78,52.986L17.757,52.986L17.757,52.941C12.166,47.329 8.698,39.634 8.698,31.117C8.698,22.644 12.166,14.882 17.757,9.293L17.78,9.27C23.394,3.661 31.131,0.204 39.604,0.204C48.121,0.204 55.839,3.661 61.465,9.27L61.465,9.293L61.488,9.293C67.074,14.882 70.534,22.644 70.534,31.117C70.534,39.634 67.074,47.329 61.488,52.941L61.465,52.986C57.298,57.133 51.977,60.104 46.035,61.388L46.035,77.846ZM126.388,66.869L126.265,66.689C124.295,63.364 121.145,61.147 117.665,60.192C114.07,59.237 110.198,59.638 106.753,61.614L106.773,61.614C103.336,63.565 101.036,66.754 100.076,70.329C99.131,73.877 99.542,77.799 101.518,81.216L101.586,81.304C103.564,84.676 106.716,86.938 110.233,87.848C113.769,88.849 117.708,88.425 121.103,86.449L121.286,86.361C124.628,84.366 126.855,81.216 127.782,77.756C128.73,74.186 128.352,70.284 126.388,66.869Z" style="fill:rgb(164,153,42);fill-rule:nonzero;"/>
                </g>
                <g id="Kafka" transform="matrix(1.01229,0,0,1.1079,3165.26,-347.573)">
                    <path d="M189.859,71.703L205.821,71.703L205.821,120.426L228.839,94.967L247.977,94.967L220.188,124.463L248.093,161.853L229.817,161.853L205.821,128.455L205.821,161.853L189.859,161.853L189.859,71.703ZM266.519,128.698C266.519,136.995 272.487,149.058 286.864,149.058C295.76,149.058 301.615,144.422 304.651,138.346C306.241,135.398 306.973,132.246 307.219,128.966C307.329,125.792 306.73,122.492 305.381,119.561C302.583,113.243 296.372,107.764 286.746,107.764C273.838,107.764 266.519,118.23 266.519,128.588L266.519,128.698ZM323.053,161.853L307.083,161.853L307.083,152.23C302.833,160.012 293.935,163.919 284.55,163.919C263.104,163.919 250.56,147.217 250.56,128.345C250.56,107.275 265.787,92.903 284.55,92.903C296.733,92.903 304.162,99.36 307.083,104.725L307.083,94.967L323.053,94.967L323.053,161.853ZM341.126,107.275L332.854,107.275L332.854,94.967L341.126,94.967L341.126,91.198C341.126,71.325 356.238,70.126 367.696,69.993L367.696,82.279C363.667,82.279 357.095,82.279 357.095,91.682L357.095,94.967L367.696,94.967L367.696,107.275L357.095,107.275L357.095,161.853L341.126,161.853L341.126,107.275ZM378.55,71.703L394.507,71.703L394.507,120.426L417.53,94.967L436.668,94.967L408.879,124.463L436.779,161.853L418.503,161.853L394.507,128.455L394.507,161.853L378.55,161.853L378.55,71.703ZM455.21,128.698C455.21,136.995 461.175,149.058 475.555,149.058C484.439,149.058 490.293,144.422 493.335,138.346C494.929,135.398 495.664,132.246 495.905,128.966C496.015,125.792 495.416,122.492 494.064,119.561C491.271,113.243 485.06,107.764 475.437,107.764C462.527,107.764 455.21,118.23 455.21,128.588L455.21,128.698ZM511.739,161.853L495.774,161.853L495.774,152.23C491.512,160.012 482.621,163.919 473.241,163.919C451.795,163.919 439.261,147.217 439.261,128.345C439.261,107.275 454.483,92.903 473.241,92.903C485.416,92.903 492.853,99.36 495.774,104.725L495.774,94.967L511.739,94.967L511.739,161.853Z" style="fill:rgb(164,153,42);fill-rule:nonzero;"/>
                </g>
            </g>
        </g>
    </g>
</svg>
