<?xml version="1.0" encoding="UTF-8" standalone="no"?>
<!DOCTYPE svg PUBLIC "-//W3C//DTD SVG 1.1//EN" "http://www.w3.org/Graphics/SVG/1.1/DTD/svg11.dtd">
<svg width="100%" height="100%" viewBox="0 0 500 500" version="1.1" xmlns="http://www.w3.org/2000/svg" xmlns:xlink="http://www.w3.org/1999/xlink" xml:space="preserve" xmlns:serif="http://www.serif.com/" style="fill-rule:evenodd;clip-rule:evenodd;stroke-linejoin:round;stroke-miterlimit:2;">
    <g transform="matrix(1,0,0,1,0,-1988)">
        <g id="Logo--GCP" transform="matrix(1,0,0,1,0,-0.323473)">
            <rect x="0" y="1988.32" width="500" height="500" style="fill:none;"/>
            <clipPath id="_clip1">
                <rect x="0" y="1988.32" width="500" height="500"/>
            </clipPath>
            <g clip-path="url(#_clip1)">
                <g transform="matrix(33.3403,0,0,33.3403,-16.7115,1971.6)">
                    <path d="M11.87,3.465L11.868,3.462C10.339,2.129 8.228,1.669 6.282,2.245C4.341,2.831 2.834,4.38 2.302,6.337C1.175,7.123 0.501,8.413 0.501,9.787C0.501,11.097 1.113,12.334 2.153,13.129C2.888,13.689 3.787,13.995 4.711,13.999L11.231,13.999C13.088,14.016 14.751,12.81 15.309,11.038C15.86,9.268 15.177,7.332 13.637,6.3C13.337,5.203 12.723,4.218 11.87,3.465ZM4.042,11.245C4.252,11.34 4.48,11.405 4.712,11.405L11.23,11.407C12.13,11.407 12.86,10.682 12.86,9.788C12.86,8.894 12.13,8.169 11.23,8.169L11.23,7.846C11.248,6.856 10.81,5.911 10.043,5.286L10.041,5.286C8.702,4.208 6.736,4.374 5.576,5.64L5.562,5.655C6.558,5.855 7.459,6.406 8.087,7.223L6.198,9.101C5.934,8.52 5.352,8.145 4.714,8.145C3.908,8.145 3.217,8.743 3.101,9.54C3,10.252 3.386,10.951 4.043,11.244L4.042,11.245Z" style="fill:rgb(164,153,42);"/>
                </g>
            </g>
        </g>
    </g>
</svg>
