<?xml version="1.0" encoding="UTF-8" standalone="no"?>
<!DOCTYPE svg PUBLIC "-//W3C//DTD SVG 1.1//EN" "http://www.w3.org/Graphics/SVG/1.1/DTD/svg11.dtd">
<svg width="100%" height="100%" viewBox="0 0 500 500" version="1.1" xmlns="http://www.w3.org/2000/svg" xmlns:xlink="http://www.w3.org/1999/xlink" xml:space="preserve" xmlns:serif="http://www.serif.com/" style="fill-rule:evenodd;clip-rule:evenodd;stroke-linejoin:round;stroke-miterlimit:2;">
    <g transform="matrix(1,0,0,1,-1792.53,-532.5)">
        <g id="Logo--TypeScript" transform="matrix(0.965195,0,0,0.881895,-1262.56,1056.33)">
            <rect x="3165.26" y="-593.982" width="518.03" height="566.961" style="fill:none;"/>
            <clipPath id="_clip1">
                <rect x="3165.26" y="-593.982" width="518.03" height="566.961"/>
            </clipPath>
            <g clip-path="url(#_clip1)">
                <g id="Logo" transform="matrix(32.3769,0,0,35.4351,3165.26,-593.982)">
                    <path d="M0,1.75C0,0.784 0.784,0 1.75,0L14.25,0C15.217,0 16,0.784 16,1.75L16,3.75C16,4.164 15.664,4.5 15.25,4.5C14.836,4.5 14.5,4.164 14.5,3.75L14.5,1.75C14.5,1.612 14.388,1.5 14.25,1.5L1.75,1.5C1.612,1.5 1.5,1.612 1.5,1.75L1.5,14.25C1.5,14.388 1.612,14.5 1.75,14.5L15.25,14.5C15.664,14.5 16,14.836 16,15.25C16,15.664 15.664,16 15.25,16L1.75,16C0.784,16 0,15.217 0,14.25L0,1.75ZM4.75,6.5C4.75,6.086 5.086,5.75 5.5,5.75L9.25,5.75C9.664,5.75 10,6.086 10,6.5C10,6.914 9.664,7.25 9.25,7.25L8.25,7.25L8.25,12.5C8.25,12.914 7.914,13.25 7.5,13.25C7.086,13.25 6.75,12.914 6.75,12.5L6.75,7.25L5.5,7.25C5.086,7.25 4.75,6.914 4.75,6.5ZM11.276,6.58C11.694,6.082 12.351,5.75 13.25,5.75C14.085,5.75 14.715,6.036 15.139,6.485C15.424,6.786 15.411,7.261 15.11,7.545C14.809,7.83 14.334,7.816 14.049,7.515C13.939,7.399 13.72,7.25 13.25,7.25C12.749,7.25 12.531,7.418 12.424,7.545C12.293,7.701 12.25,7.896 12.25,8C12.25,8.104 12.293,8.299 12.424,8.455C12.531,8.582 12.749,8.75 13.25,8.75C13.326,8.75 13.399,8.761 13.468,8.782C14.131,8.876 14.632,9.173 14.974,9.58C15.368,10.049 15.5,10.604 15.5,11C15.5,11.396 15.368,11.951 14.974,12.42C14.556,12.918 13.899,13.25 13,13.25C12.165,13.25 11.535,12.964 11.111,12.515C10.826,12.214 10.839,11.74 11.141,11.455C11.442,11.17 11.916,11.184 12.201,11.485C12.311,11.601 12.53,11.75 13,11.75C13.501,11.75 13.719,11.582 13.826,11.455C13.957,11.299 14,11.104 14,11C14,10.896 13.957,10.701 13.826,10.545C13.719,10.418 13.501,10.25 13,10.25C12.924,10.25 12.851,10.239 12.782,10.218C12.119,10.124 11.618,9.827 11.276,9.42C10.882,8.951 10.75,8.396 10.75,8C10.75,7.604 10.882,7.049 11.276,6.58Z" style="fill:rgb(164,153,42);fill-rule:nonzero;"/>
                </g>
            </g>
        </g>
    </g>
</svg>
